<?xml version="1.0" encoding="UTF-8"?>
<svg width="384px" height="75px" viewBox="0 0 384 75" version="1.1" xmlns="http://www.w3.org/2000/svg" xmlns:xlink="http://www.w3.org/1999/xlink">
    <title>ArtGee-white Logo</title>
    <g id="页面-1" stroke="none" stroke-width="1" fill="none" fill-rule="evenodd">
        <g id="ArtGee-Logo@" fill="#FFFFFF" fill-rule="nonzero">
            <path d="M20.7845659,73.5576923 L26.4437299,59.5467033 L56.9003215,59.5467033 L62.5594855,73.5576923 L83.755627,73.5576923 L51.8585209,1.44230769 L31.7942122,1.44230769 L0,73.5576923 L20.7845659,73.5576923 Z M50.9324759,44.5054945 L32.4115756,44.5054945 L41.6720257,21.4285714 L50.9324759,44.5054945 Z M108.141479,73.5576923 L108.141479,47.9052198 C108.141479,43.2348901 109.324759,39.7664835 111.691318,37.5 C114.057878,35.2335165 117.333333,34.1002747 121.517685,34.1002747 C122.683816,34.1002747 124.158628,34.2032967 125.942122,34.4093407 L125.942122,34.4093407 L125.942122,16.7925824 C121.826367,16.7925824 118.173633,17.4278846 114.983923,18.698489 C111.794212,19.9690934 109.204716,21.875 107.215434,24.4162088 L107.215434,24.4162088 L107.215434,17.7197802 L88.5916399,17.7197802 L88.5916399,73.5576923 L108.141479,73.5576923 Z M160.617363,74.4848901 C163.292605,74.4848901 165.813505,74.2101648 168.180064,73.6607143 C170.546624,73.1112637 172.553055,72.3214286 174.199357,71.2912088 L174.199357,71.2912088 L169.363344,57.5892857 C167.648446,58.7568681 165.659164,59.3406593 163.395498,59.3406593 C161.612004,59.3406593 160.188639,58.7740385 159.125402,57.6407967 C158.062165,56.5075549 157.530547,54.9450549 157.530547,52.9532967 L157.530547,52.9532967 L157.530547,34.4093407 L170.289389,34.4093407 L170.289389,19.7802198 L157.530547,19.7802198 L157.530547,5.25412088 L137.980707,5.25412088 L137.980707,19.7802198 L129.85209,19.7802198 L129.85209,34.4093407 L137.980707,34.4093407 L137.980707,53.1593407 C137.980707,60.2335165 139.935691,65.5563187 143.845659,69.1277473 C147.755627,72.6991758 153.346195,74.4848901 160.617363,74.4848901 Z M218.649518,75 C224,75 229.350482,74.2101648 234.700965,72.6304945 C240.051447,71.0508242 244.784566,68.7843407 248.900322,65.831044 L248.900322,65.831044 L248.900322,35.9546703 L230.893891,35.9546703 L230.893891,55.7348901 C227.464094,57.3145604 223.794212,58.1043956 219.884244,58.1043956 C215.905681,58.1043956 212.37299,57.2287088 209.286174,55.4773352 C206.199357,53.7259615 203.798499,51.2877747 202.083601,48.1627747 C200.368703,45.0377747 199.511254,41.4835165 199.511254,37.5 C199.511254,31.25 201.397642,26.2534341 205.170418,22.5103022 C208.943194,18.7671703 213.916399,16.8956044 220.090032,16.8956044 C226.881029,16.8956044 232.711683,19.5741758 237.581994,24.9313187 L237.581994,24.9313187 L250.546624,13.1868132 C246.979636,8.92857143 242.5209,5.66620879 237.170418,3.39972527 C231.819936,1.13324176 225.783494,0 219.061093,0 C211.378349,0 204.484459,1.59684066 198.379421,4.79052198 C192.274384,7.9842033 187.506967,12.4313187 184.07717,18.1318681 C180.647374,23.8324176 178.932476,30.2884615 178.932476,37.5 C178.932476,44.7115385 180.647374,51.1675824 184.07717,56.8681319 C187.506967,62.5686813 192.240086,67.0157967 198.276527,70.209478 C204.312969,73.4031593 211.103966,75 218.649518,75 Z M290.160772,74.4848901 C300.587353,74.4848901 308.510182,71.4629121 313.92926,65.418956 L313.92926,65.418956 L303.639871,54.7046703 C301.650589,56.4217033 299.678457,57.657967 297.723473,58.4134615 C295.768489,59.168956 293.453376,59.5467033 290.778135,59.5467033 C287.211147,59.5467033 284.244373,58.7740385 281.877814,57.2287088 C279.511254,55.6833791 277.916399,53.4684066 277.093248,50.5837912 L277.093248,50.5837912 L317.633441,50.5837912 C317.839228,47.4931319 317.942122,45.8791209 317.942122,45.7417582 C317.942122,39.7664835 316.621651,34.5982143 313.980707,30.2369505 C311.339764,25.8756868 307.755627,22.5446429 303.228296,20.2438187 C298.700965,17.9429945 293.659164,16.7925824 288.102894,16.7925824 C282.27224,16.7925824 277.024652,18.0288462 272.360129,20.5013736 C267.695606,22.9739011 264.042872,26.3907967 261.401929,30.7520604 C258.760986,35.1133242 257.440514,40.0412088 257.440514,45.5357143 C257.440514,51.0989011 258.795284,56.0782967 261.504823,60.4739011 C264.214362,64.8695055 268.038585,68.3035714 272.977492,70.7760989 C277.916399,73.2486264 283.644159,74.4848901 290.160772,74.4848901 Z M299.62701,40.2815934 L276.784566,40.2815934 C277.333333,37.3282967 278.619507,34.9931319 280.643087,33.2760989 C282.666667,31.5590659 285.187567,30.7005495 288.205788,30.7005495 C291.224009,30.7005495 293.744909,31.5590659 295.768489,33.2760989 C297.792069,34.9931319 299.078242,37.3282967 299.62701,40.2815934 L299.62701,40.2815934 Z M356.21865,74.4848901 C366.64523,74.4848901 374.56806,71.4629121 379.987138,65.418956 L379.987138,65.418956 L369.697749,54.7046703 C367.708467,56.4217033 365.736334,57.657967 363.78135,58.4134615 C361.826367,59.168956 359.511254,59.5467033 356.836013,59.5467033 C353.269025,59.5467033 350.302251,58.7740385 347.935691,57.2287088 C345.569132,55.6833791 343.974277,53.4684066 343.151125,50.5837912 L343.151125,50.5837912 L383.691318,50.5837912 C383.897106,47.4931319 384,45.8791209 384,45.7417582 C384,39.7664835 382.679528,34.5982143 380.038585,30.2369505 C377.397642,25.8756868 373.813505,22.5446429 369.286174,20.2438187 C364.758842,17.9429945 359.717042,16.7925824 354.160772,16.7925824 C348.330118,16.7925824 343.082529,18.0288462 338.418006,20.5013736 C333.753483,22.9739011 330.10075,26.3907967 327.459807,30.7520604 C324.818864,35.1133242 323.498392,40.0412088 323.498392,45.5357143 C323.498392,51.0989011 324.853162,56.0782967 327.562701,60.4739011 C330.27224,64.8695055 334.096463,68.3035714 339.03537,70.7760989 C343.974277,73.2486264 349.702036,74.4848901 356.21865,74.4848901 Z M365.684887,40.2815934 L342.842444,40.2815934 C343.391211,37.3282967 344.677385,34.9931319 346.700965,33.2760989 C348.724544,31.5590659 351.245445,30.7005495 354.263666,30.7005495 C357.281886,30.7005495 359.802787,31.5590659 361.826367,33.2760989 C363.849946,34.9931319 365.13612,37.3282967 365.684887,40.2815934 L365.684887,40.2815934 Z" id="ArtGee-white-Logo"></path>
        </g>
    </g>
</svg>